<svg aria-hidden="true" style="position: absolute; width: 0; height: 0; overflow: hidden;" version="1.1" xmlns="http://www.w3.org/2000/svg" xmlns:xlink="http://www.w3.org/1999/xlink">
<defs>
<symbol id="icon-bench" viewBox="0 0 32 32">
<path d="M29.333 18.133c0.295 0 0.533-0.239 0.533-0.533v-2.133c0-0.294-0.238-0.533-0.533-0.533h-2.667v-0.533c0-0.294-0.238-0.533-0.533-0.533s-0.533 0.239-0.533 0.533v0.533h-14.933v-0.533c0-0.294-0.239-0.533-0.533-0.533s-0.533 0.239-0.533 0.533v0.533h-2.667c-0.294 0-0.533 0.239-0.533 0.533v2.133c0 0.294 0.239 0.533 0.533 0.533h22.4zM7.467 17.067v-1.067h21.333v1.067h-21.333z"></path>
<path d="M19.2 11.733c-0.862 0-1.42 0.655-1.481 0.731-0.185 0.227-0.15 0.558 0.075 0.745s0.561 0.155 0.75-0.068c0.002-0.004 0.291-0.34 0.655-0.34s0.653 0.337 0.653 0.337c0.106 0.13 0.259 0.197 0.414 0.197 0.118 0 0.237-0.039 0.336-0.119 0.229-0.186 0.263-0.522 0.077-0.75-0.061-0.075-0.618-0.731-1.48-0.731z"></path>
<path d="M29.333 22.4c0.295 0 0.533-0.239 0.533-0.533v-2.133c0-0.294-0.238-0.533-0.533-0.533h-2.667v-0.533c0-0.294-0.238-0.533-0.533-0.533s-0.533 0.239-0.533 0.533v0.533h-14.933v-0.533c0-0.294-0.239-0.533-0.533-0.533s-0.533 0.239-0.533 0.533v0.533h-2.667c-0.294 0-0.533 0.239-0.533 0.533v2.133c0 0.294 0.239 0.533 0.533 0.533h22.4zM7.467 21.333v-1.067h21.333v1.067h-21.333z"></path>
<path d="M21.986 10.469c0.106 0.13 0.259 0.197 0.414 0.197 0.118 0 0.237-0.039 0.336-0.119 0.229-0.186 0.263-0.522 0.077-0.75-0.061-0.075-0.618-0.731-1.481-0.731s-1.42 0.655-1.481 0.731c-0.185 0.227-0.15 0.558 0.075 0.745 0.226 0.188 0.561 0.155 0.749-0.068 0.003-0.004 0.292-0.34 0.656-0.34s0.653 0.336 0.653 0.336z"></path>
<path d="M0.536 6.987c0.027 0.273 0.257 0.48 0.531 0.48h3.2c0.274 0 0.503-0.207 0.531-0.48l0.533-5.333c0.015-0.15-0.034-0.299-0.135-0.411s-0.244-0.175-0.395-0.175h-1.6v-0.533c0-0.294-0.239-0.533-0.533-0.533s-0.533 0.239-0.533 0.533v0.533h-1.6c-0.151 0-0.294 0.064-0.395 0.175s-0.15 0.261-0.135 0.411l0.533 5.333zM4.211 2.133l-0.427 4.267h-2.235l-0.427-4.267h3.088z"></path>
<path d="M14.933 12.267c0 0.596 0.244 1.151 0.686 1.561 0.102 0.095 0.233 0.142 0.363 0.142 0.143 0 0.286-0.058 0.391-0.171 0.2-0.216 0.188-0.554-0.028-0.754-0.223-0.206-0.345-0.483-0.345-0.779 0-0.442 0.281-0.842 0.7-0.996 0.174-0.064 0.302-0.214 0.338-0.396s-0.025-0.37-0.16-0.496c-0.223-0.206-0.345-0.483-0.345-0.779 0-0.555 0.437-1.019 0.994-1.057 0.205-0.014 0.383-0.143 0.459-0.334s0.036-0.407-0.102-0.558c-0.183-0.2-0.284-0.455-0.284-0.717 0-0.555 0.437-1.019 0.994-1.057 0.205-0.014 0.383-0.143 0.459-0.334s0.036-0.407-0.102-0.558c-0.183-0.2-0.284-0.455-0.284-0.717 0-0.477 0.325-0.898 0.789-1.023 0.148-0.040 0.27-0.141 0.338-0.277s0.075-0.295 0.018-0.436c-0.052-0.131-0.078-0.264-0.078-0.397 0-0.588 0.478-1.067 1.067-1.067s1.067 0.478 1.067 1.067c0 0.133-0.027 0.266-0.078 0.397-0.057 0.141-0.051 0.3 0.018 0.436s0.19 0.237 0.338 0.277c0.465 0.126 0.789 0.547 0.789 1.023 0 0.262-0.101 0.517-0.284 0.717-0.139 0.151-0.178 0.368-0.102 0.558s0.254 0.32 0.459 0.334c0.557 0.038 0.994 0.502 0.994 1.057 0 0.262-0.101 0.517-0.284 0.717-0.139 0.151-0.178 0.368-0.102 0.558s0.254 0.32 0.459 0.334c0.557 0.038 0.994 0.502 0.994 1.057 0 0.296-0.122 0.573-0.345 0.779-0.135 0.126-0.197 0.314-0.16 0.496s0.164 0.332 0.339 0.396c0.419 0.154 0.7 0.555 0.7 0.996 0 0.294 0.238 0.533 0.533 0.533s0.533-0.239 0.533-0.533c0-0.65-0.301-1.254-0.791-1.652 0.169-0.308 0.258-0.654 0.258-1.015 0-0.834-0.491-1.567-1.206-1.914 0.092-0.239 0.14-0.494 0.14-0.753 0-0.834-0.491-1.567-1.206-1.914 0.092-0.239 0.14-0.494 0.14-0.753 0-0.778-0.428-1.48-1.086-1.852 0.013-0.093 0.019-0.187 0.019-0.282-0-1.176-0.957-2.133-2.134-2.133s-2.133 0.957-2.133 2.133c0 0.094 0.006 0.188 0.019 0.282-0.658 0.372-1.086 1.074-1.086 1.852 0 0.259 0.048 0.514 0.14 0.753-0.716 0.347-1.206 1.079-1.206 1.914 0 0.259 0.048 0.514 0.14 0.753-0.716 0.347-1.206 1.079-1.206 1.914 0 0.361 0.090 0.707 0.258 1.015-0.49 0.398-0.792 1.002-0.792 1.652z"></path>
<path d="M20.063 7.425c0.271 0.112 0.583-0.017 0.697-0.288 0.010-0.026 0.025-0.054 0.040-0.082 0.015 0.027 0.029 0.054 0.039 0.079 0.084 0.207 0.284 0.333 0.494 0.333 0.067 0 0.135-0.013 0.201-0.040 0.273-0.11 0.405-0.422 0.294-0.694-0.059-0.145-0.385-0.866-1.028-0.866s-0.969 0.722-1.028 0.866c-0.11 0.271 0.020 0.58 0.291 0.692z"></path>
<path d="M31.467 30.933h-8.533c-0.295 0-0.533 0.239-0.533 0.533s0.238 0.533 0.533 0.533h8.533c0.295 0 0.533-0.239 0.533-0.533s-0.238-0.533-0.533-0.533z"></path>
<path d="M31.467 23.467h-4.8v-0.533c0-0.294-0.238-0.533-0.533-0.533s-0.533 0.239-0.533 0.533v0.533h-14.933v-0.533c0-0.294-0.239-0.533-0.533-0.533s-0.533 0.239-0.533 0.533v0.533h-4.8c-0.294 0-0.533 0.239-0.533 0.533v2.133c0 0.294 0.239 0.533 0.533 0.533h1.6v2.667c0 0.294 0.239 0.533 0.533 0.533s0.533-0.239 0.533-0.533v-2.667h21.333v2.667c0 0.294 0.238 0.533 0.533 0.533s0.533-0.239 0.533-0.533v-2.667h1.6c0.295 0 0.533-0.239 0.533-0.533v-2.133c0-0.294-0.238-0.533-0.533-0.533zM30.933 25.6h-25.6v-1.067h25.6v1.067z"></path>
<path d="M8 30.933h-4.8v-21.867c0-0.294-0.239-0.533-0.533-0.533s-0.533 0.239-0.533 0.533v21.867h-1.6c-0.294 0-0.533 0.239-0.533 0.533s0.239 0.533 0.533 0.533h7.467c0.294 0 0.533-0.239 0.533-0.533s-0.239-0.533-0.533-0.533z"></path>
<path d="M20.8 30.933h-1.067c-0.295 0-0.533 0.239-0.533 0.533s0.238 0.533 0.533 0.533h1.067c0.295 0 0.533-0.239 0.533-0.533s-0.238-0.533-0.533-0.533z"></path>
<path d="M16.533 30.933h-5.333c-0.294 0-0.533 0.239-0.533 0.533s0.239 0.533 0.533 0.533h5.333c0.295 0 0.533-0.239 0.533-0.533s-0.238-0.533-0.533-0.533z"></path>
</symbol>
<symbol id="icon-bicycle" viewBox="0 0 32 32">
<path d="M8 27.2h-7.467c-0.295 0-0.533 0.239-0.533 0.533s0.238 0.533 0.533 0.533h7.467c0.295 0 0.533-0.239 0.533-0.533s-0.238-0.533-0.533-0.533z"></path>
<path d="M6.4 26.133c3.529 0 6.4-2.871 6.4-6.4 0-1.767-0.705-3.412-1.984-4.633-0.212-0.203-0.551-0.195-0.754 0.018-0.203 0.213-0.195 0.551 0.018 0.754 1.066 1.018 1.654 2.388 1.654 3.861 0 2.941-2.393 5.333-5.333 5.333s-5.333-2.393-5.333-5.333c0-2.941 2.393-5.333 5.333-5.333 0.295 0 0.533-0.239 0.533-0.533s-0.238-0.533-0.533-0.533c-3.529 0-6.4 2.871-6.4 6.4s2.871 6.4 6.4 6.4z"></path>
<path d="M9.067 11.199h0.27l-3.081 7.481c-0.519 0.071-0.923 0.513-0.923 1.052 0 0.588 0.478 1.067 1.067 1.067s1.067-0.478 1.067-1.067c0-0.244-0.085-0.466-0.224-0.646l3.010-7.308 3.375 4.901c0.166 0.243 0.498 0.304 0.741 0.137s0.304-0.499 0.137-0.742l-3.358-4.875h1.119c0.882 0 1.6-0.718 1.6-1.6s-0.718-1.6-1.6-1.6h-3.2c-0.295 0-0.533 0.238-0.533 0.533v2.133c-0 0.295 0.238 0.533 0.533 0.533zM9.6 9.066h2.667c0.294 0 0.533 0.239 0.533 0.533s-0.239 0.533-0.533 0.533h-2.667v-1.067z"></path>
<path d="M25.067 13.866c0 0.294 0.238 0.533 0.533 0.533 2.941 0 5.333 2.392 5.333 5.333s-2.393 5.333-5.333 5.333-5.333-2.393-5.333-5.333c0-1.598 0.708-3.099 1.943-4.117 0.227-0.187 0.259-0.523 0.071-0.75s-0.523-0.26-0.751-0.072c-1.481 1.222-2.33 3.022-2.33 4.94 0 3.529 2.871 6.4 6.4 6.4s6.4-2.871 6.4-6.4c0-3.529-2.871-6.4-6.4-6.4-0.295 0-0.533 0.238-0.533 0.533z"></path>
<path d="M16.533 27.2h-5.333c-0.295 0-0.533 0.239-0.533 0.533s0.238 0.533 0.533 0.533h5.333c0.295 0 0.533-0.239 0.533-0.533s-0.238-0.533-0.533-0.533z"></path>
<path d="M16.533 17.142v-1.676c0.295 0 0.533-0.239 0.533-0.533s-0.238-0.533-0.533-0.533h-1.067c-0.295 0-0.533 0.238-0.533 0.533s0.238 0.533 0.533 0.533v1.676c-0.918 0.238-1.6 1.066-1.6 2.058s0.682 1.819 1.6 2.058v1.676c-0.295 0-0.533 0.238-0.533 0.533s0.238 0.533 0.533 0.533h1.067c0.295 0 0.533-0.239 0.533-0.533s-0.238-0.533-0.533-0.533v-1.676c0.918-0.239 1.6-1.067 1.6-2.058s-0.682-1.819-1.6-2.058zM16 20.266c-0.588 0-1.067-0.478-1.067-1.067s0.479-1.067 1.067-1.067c0.588 0 1.067 0.478 1.067 1.067s-0.478 1.067-1.067 1.067z"></path>
<path d="M24.778 19.061c-0.15 0.184-0.245 0.416-0.245 0.672 0 0.588 0.479 1.067 1.067 1.067s1.067-0.478 1.067-1.067c0-0.528-0.387-0.964-0.89-1.049l-2.407-6.418h3.807c0.638 0 1.010-0.51 1.079-0.962l0.533-2.667c0.031-0.157-0.009-0.319-0.11-0.443s-0.252-0.195-0.412-0.195h-4.8c-0.295 0-0.533 0.238-0.533 0.533s0.238 0.533 0.533 0.533h4.149l-0.407 2.041c-0.008 0.037-0.031 0.089-0.031 0.093h-4.207l-1.67-4.454c-0.001-0.002-0.003-0.003-0.003-0.005s-0.001-0.004-0.001-0.006l-1.067-2.667c-0.109-0.274-0.422-0.405-0.693-0.297-0.274 0.109-0.407 0.42-0.298 0.693l0.972 2.427-2.006 3.51c-0.147 0.256-0.058 0.581 0.198 0.728 0.083 0.047 0.174 0.070 0.264 0.070 0.186 0 0.365-0.096 0.463-0.269l1.57-2.747 1.283 3.422-4.065 4.572c-0.196 0.22-0.176 0.557 0.044 0.753 0.101 0.091 0.228 0.135 0.354 0.135 0.147 0 0.293-0.061 0.398-0.179l3.691-4.152 2.372 6.326z"></path>
<path d="M31.467 27.2h-8.533c-0.295 0-0.533 0.239-0.533 0.533s0.238 0.533 0.533 0.533h8.533c0.295 0 0.533-0.239 0.533-0.533s-0.238-0.533-0.533-0.533z"></path>
<path d="M20.8 27.2h-1.067c-0.295 0-0.533 0.239-0.533 0.533s0.238 0.533 0.533 0.533h1.067c0.295 0 0.533-0.239 0.533-0.533s-0.238-0.533-0.533-0.533z"></path>
</symbol>
<symbol id="icon-building" viewBox="0 0 32 32">
<path d="M22.933 29.867h-14.933c-0.294 0-0.533 0.239-0.533 0.533v1.067c0 0.294 0.239 0.533 0.533 0.533s0.533-0.239 0.533-0.533v-0.533h14.4c0.294 0 0.533-0.239 0.533-0.533s-0.239-0.533-0.533-0.533z"></path>
<path d="M11.733 13.333c0 0.294 0.239 0.533 0.533 0.533h2.133c0.294 0 0.533-0.239 0.533-0.533v-3.2c0-0.294-0.239-0.533-0.533-0.533h-2.133c-0.294 0-0.533 0.239-0.533 0.533v3.2h-0zM12.8 10.667h1.067v2.133h-1.067v-2.133z"></path>
<path d="M6.933 6.4h-6.4c-0.294 0-0.533 0.239-0.533 0.533v10.667c0 0.294 0.239 0.533 0.533 0.533s0.533-0.239 0.533-0.533v-10.133h5.867c0.294 0 0.533-0.239 0.533-0.533s-0.239-0.533-0.533-0.533z"></path>
<path d="M25.6 26.133c0 0.294 0.239 0.533 0.533 0.533h2.133c0.294 0 0.533-0.239 0.533-0.533v-3.2c0-0.294-0.239-0.533-0.533-0.533h-2.133c-0.294 0-0.533 0.239-0.533 0.533v3.2zM26.667 23.467h1.067v2.133h-1.067v-2.133z"></path>
<path d="M2.667 19.2c-2.636 0-2.667 6.864-2.667 6.933 0 1.288 0.918 2.365 2.133 2.613v2.721c0 0.294 0.239 0.533 0.533 0.533s0.533-0.239 0.533-0.533v-2.721c1.215-0.248 2.133-1.325 2.133-2.613 0-0.069-0.030-6.933-2.667-6.933zM2.667 27.733c-0.882 0-1.6-0.718-1.6-1.6 0-2.657 0.714-5.867 1.6-5.867s1.6 3.21 1.6 5.867c0 0.882-0.718 1.6-1.6 1.6z"></path>
<path d="M5.867 16h-2.133c-0.294 0-0.533 0.239-0.533 0.533v1.067c0 0.294 0.239 0.533 0.533 0.533s0.533-0.239 0.533-0.533v-0.533h1.067v2.667c0 0.294 0.239 0.533 0.533 0.533s0.533-0.239 0.533-0.533v-3.2c0-0.294-0.239-0.533-0.533-0.533z"></path>
<path d="M26.133 13.867h2.133c0.294 0 0.533-0.239 0.533-0.533v-3.2c0-0.294-0.239-0.533-0.533-0.533h-2.133c-0.294 0-0.533 0.239-0.533 0.533v3.2c0 0.294 0.239 0.533 0.533 0.533zM26.667 10.667h1.067v2.133h-1.067v-2.133z"></path>
<path d="M5.867 9.6h-2.133c-0.294 0-0.533 0.239-0.533 0.533v3.2c0 0.294 0.239 0.533 0.533 0.533h2.133c0.294 0 0.533-0.239 0.533-0.533v-3.2c0-0.294-0.239-0.533-0.533-0.533zM5.333 12.8h-1.067v-2.133h1.067v2.133h-0z"></path>
<path d="M17.067 13.333c0 0.294 0.239 0.533 0.533 0.533h2.133c0.294 0 0.533-0.239 0.533-0.533v-3.2c0-0.294-0.239-0.533-0.533-0.533h-2.133c-0.294 0-0.533 0.239-0.533 0.533v3.2zM18.133 10.667h1.067v2.133h-1.067v-2.133z"></path>
<path d="M31.467 6.4h-6.4c-0.294 0-0.533 0.239-0.533 0.533s0.239 0.533 0.533 0.533h5.867v21.431c-0.167-0.060-0.345-0.098-0.533-0.098-0.092 0-0.184 0.008-0.274 0.024-0.368-0.663-1.068-1.091-1.859-1.091s-1.491 0.428-1.859 1.091c-0.090-0.016-0.182-0.024-0.274-0.024-0.882 0-1.6 0.718-1.6 1.6s0.718 1.6 1.6 1.6h4.267c0.882 0 1.6-0.718 1.6-1.6v-23.467c0-0.294-0.239-0.533-0.533-0.533zM30.4 30.933h-4.267c-0.294 0-0.533-0.239-0.533-0.533s0.239-0.533 0.533-0.533c0.102 0 0.199 0.029 0.289 0.087 0.146 0.094 0.329 0.111 0.49 0.046s0.28-0.205 0.319-0.374c0.113-0.486 0.539-0.826 1.036-0.826s0.923 0.34 1.036 0.826c0.039 0.169 0.158 0.309 0.319 0.374s0.343 0.048 0.49-0.046c0.347-0.224 0.822 0.050 0.822 0.446-0 0.294-0.239 0.533-0.533 0.533z"></path>
<path d="M17.6 7.467h2.133c0.294 0 0.533-0.239 0.533-0.533v-3.2c0-0.294-0.239-0.533-0.533-0.533h-2.133c-0.294 0-0.533 0.239-0.533 0.533v3.2c0 0.294 0.239 0.533 0.533 0.533zM18.133 4.267h1.067v2.133h-1.067v-2.133z"></path>
<path d="M17.067 19.733c0 0.294 0.239 0.533 0.533 0.533h2.133c0.294 0 0.533-0.239 0.533-0.533v-3.2c0-0.294-0.239-0.533-0.533-0.533h-2.133c-0.294 0-0.533 0.239-0.533 0.533v3.2zM18.133 17.067h1.067v2.133h-1.067v-2.133z"></path>
<path d="M12.267 7.467h2.133c0.294 0 0.533-0.239 0.533-0.533v-3.2c0-0.294-0.239-0.533-0.533-0.533h-2.133c-0.294 0-0.533 0.239-0.533 0.533v3.2c-0 0.294 0.239 0.533 0.533 0.533zM12.8 4.267h1.067v2.133h-1.067v-2.133z"></path>
<path d="M15.621 25.755c-0.096 0.101-0.155 0.24-0.155 0.379s0.059 0.277 0.155 0.379c0.101 0.096 0.24 0.155 0.379 0.155s0.277-0.059 0.379-0.155c0.096-0.101 0.155-0.24 0.155-0.379s-0.059-0.277-0.155-0.379c-0.203-0.197-0.555-0.197-0.757 0z"></path>
<path d="M11.733 19.733c0 0.294 0.239 0.533 0.533 0.533h2.133c0.294 0 0.533-0.239 0.533-0.533v-3.2c0-0.294-0.239-0.533-0.533-0.533h-2.133c-0.294 0-0.533 0.239-0.533 0.533v3.2h-0zM12.8 17.067h1.067v2.133h-1.067v-2.133z"></path>
<path d="M10.667 22.933c0 0.294 0.239 0.533 0.533 0.533h1.6v4.8c0 0.294 0.239 0.533 0.533 0.533s0.533-0.239 0.533-0.533v-4.8h4.267v4.8c0 0.294 0.239 0.533 0.533 0.533s0.533-0.239 0.533-0.533v-4.8h1.6c0.294 0 0.533-0.239 0.533-0.533s-0.239-0.533-0.533-0.533h-9.6c-0.294 0-0.533 0.239-0.533 0.533z"></path>
<path d="M25.6 19.733c0 0.294 0.239 0.533 0.533 0.533h2.133c0.294 0 0.533-0.239 0.533-0.533v-3.2c0-0.294-0.239-0.533-0.533-0.533h-2.133c-0.294 0-0.533 0.239-0.533 0.533v3.2zM26.667 17.067h1.067v2.133h-1.067v-2.133z"></path>
<path d="M22.933 0h-13.867c-0.294 0-0.533 0.239-0.533 0.533v27.733c0 0.294 0.239 0.533 0.533 0.533s0.533-0.239 0.533-0.533v-27.2h12.8v27.2c0 0.294 0.239 0.533 0.533 0.533s0.533-0.239 0.533-0.533v-27.733c0-0.294-0.239-0.533-0.533-0.533z"></path>
</symbol>
<symbol id="icon-facebook-logo" viewBox="0 0 32 32">
<path d="M23.999 0.007l-4.15-0.007c-4.662 0-7.675 3.091-7.675 7.875v3.631h-4.172c-0.361 0-0.652 0.292-0.652 0.653v5.261c0 0.36 0.292 0.652 0.652 0.652h4.172v13.275c0 0.36 0.292 0.652 0.652 0.652h5.444c0.36 0 0.652-0.292 0.652-0.652v-13.275h4.878c0.36 0 0.652-0.292 0.652-0.652l0.002-5.261c0-0.173-0.069-0.339-0.191-0.461s-0.289-0.191-0.462-0.191h-4.88v-3.078c0-1.479 0.352-2.23 2.28-2.23l2.796-0.001c0.36 0 0.652-0.292 0.652-0.652v-4.885c0-0.36-0.292-0.652-0.652-0.652z"></path>
</symbol>
<symbol id="icon-fountain" viewBox="0 0 32 32">
<path d="M21.356 1.849c0.073 0 0.147-0.015 0.218-0.047 0.153-0.068 0.307-0.133 0.464-0.192 0.276-0.105 0.414-0.413 0.309-0.688s-0.413-0.412-0.687-0.31c-0.177 0.067-0.351 0.14-0.522 0.217-0.269 0.121-0.389 0.436-0.268 0.705 0.089 0.198 0.283 0.315 0.487 0.315z"></path>
<path d="M21.333 13.415c0.295 0 0.533-0.238 0.533-0.533v-0.092c0-0.14 0.009-0.278 0.027-0.413 0.038-0.292-0.167-0.56-0.459-0.598-0.301-0.038-0.56 0.167-0.599 0.459-0.023 0.18-0.036 0.366-0.036 0.553v0.092c0 0.295 0.238 0.533 0.533 0.533z"></path>
<path d="M18.667 13.547c0.295 0 0.533-0.239 0.533-0.533v-0.542c0-0.294-0.238-0.533-0.533-0.533s-0.533 0.239-0.533 0.533v0.542c0 0.294 0.238 0.533 0.533 0.533z"></path>
<path d="M21.729 5.111c-0.172 0.094-0.34 0.196-0.501 0.305-0.245 0.164-0.311 0.495-0.147 0.74 0.103 0.154 0.272 0.236 0.444 0.236 0.102 0 0.205-0.029 0.296-0.090 0.137-0.091 0.278-0.177 0.423-0.257 0.258-0.142 0.352-0.467 0.21-0.724s-0.466-0.351-0.725-0.21z"></path>
<path d="M14.164 5.057c0.101 0.161 0.274 0.25 0.452 0.25 0.097 0 0.195-0.026 0.283-0.082 0.25-0.157 0.325-0.486 0.169-0.735-0.101-0.161-0.205-0.317-0.315-0.471-0.171-0.239-0.503-0.295-0.744-0.123s-0.295 0.505-0.124 0.744c0.097 0.136 0.191 0.275 0.28 0.417z"></path>
<path d="M23.915 1.129c0.022 0 0.045-0.002 0.067-0.004 0.165-0.021 0.332-0.037 0.5-0.049 0.294-0.020 0.516-0.274 0.497-0.567s-0.277-0.516-0.567-0.497c-0.19 0.012-0.378 0.031-0.563 0.054-0.292 0.037-0.5 0.303-0.462 0.596 0.034 0.269 0.263 0.467 0.528 0.467z"></path>
<path d="M21.938 9.889c-0.2 0.216-0.188 0.554 0.028 0.754 0.104 0.095 0.233 0.142 0.363 0.142 0.143 0 0.286-0.057 0.391-0.171 0.111-0.119 0.233-0.233 0.363-0.336 0.231-0.183 0.269-0.519 0.086-0.749s-0.519-0.27-0.749-0.086c-0.172 0.137-0.334 0.287-0.482 0.446z"></path>
<path d="M17.101 5.225c0.088 0.055 0.186 0.082 0.283 0.082 0.178 0 0.351-0.089 0.452-0.25 0.089-0.142 0.182-0.281 0.28-0.417 0.171-0.239 0.116-0.572-0.124-0.744s-0.573-0.116-0.744 0.123c-0.11 0.154-0.215 0.31-0.315 0.471-0.157 0.249-0.081 0.578 0.168 0.735z"></path>
<path d="M21.333 15.99c0.295 0 0.533-0.239 0.533-0.533v-0.267c0-0.294-0.238-0.533-0.533-0.533s-0.533 0.239-0.533 0.533v0.267c0 0.294 0.238 0.533 0.533 0.533z"></path>
<path d="M18.655 10.836c0.025 0.004 0.049 0.005 0.073 0.005 0.262 0 0.492-0.194 0.528-0.462 0.022-0.164 0.051-0.326 0.087-0.486 0.066-0.287-0.115-0.573-0.402-0.638s-0.573 0.115-0.638 0.402c-0.043 0.19-0.078 0.383-0.105 0.579-0.039 0.292 0.165 0.561 0.457 0.6z"></path>
<path d="M15.025 6.872c0.053 0.158 0.101 0.317 0.146 0.479 0.065 0.237 0.28 0.394 0.514 0.394 0.046 0 0.093-0.006 0.14-0.019 0.066-0.018 0.124-0.050 0.175-0.087 0.052 0.038 0.109 0.070 0.175 0.087 0.047 0.013 0.094 0.019 0.14 0.019 0.234 0 0.45-0.156 0.514-0.394 0.044-0.162 0.092-0.322 0.146-0.479 0.095-0.279-0.054-0.582-0.333-0.677-0.256-0.087-0.526 0.038-0.643 0.275-0.117-0.237-0.387-0.362-0.643-0.275-0.279 0.095-0.428 0.398-0.333 0.677z"></path>
<path d="M19.114 3.283c0.124 0 0.249-0.043 0.35-0.131 0.126-0.11 0.256-0.217 0.388-0.318 0.234-0.18 0.277-0.514 0.098-0.748s-0.515-0.278-0.748-0.098c-0.15 0.115-0.296 0.235-0.438 0.359-0.222 0.193-0.246 0.53-0.052 0.753 0.105 0.121 0.253 0.183 0.402 0.183z"></path>
<path d="M19.529 7.017c-0.117 0.156-0.228 0.317-0.332 0.482-0.157 0.249-0.082 0.579 0.167 0.736 0.089 0.055 0.186 0.082 0.284 0.082 0.177 0 0.35-0.088 0.452-0.249 0.089-0.14 0.182-0.277 0.282-0.409 0.177-0.235 0.13-0.57-0.105-0.747s-0.57-0.129-0.747 0.105z"></path>
<path d="M24.521 4.278c-0.197 0.015-0.391 0.038-0.583 0.070-0.291 0.048-0.487 0.323-0.439 0.613 0.043 0.261 0.268 0.446 0.525 0.446 0.029 0 0.058-0.002 0.087-0.007 0.163-0.027 0.326-0.046 0.492-0.059 0.294-0.023 0.514-0.279 0.491-0.573s-0.273-0.515-0.573-0.49z"></path>
<path d="M26.494 1.168c0.166 0.027 0.331 0.058 0.494 0.094 0.039 0.009 0.077 0.012 0.115 0.012 0.245 0 0.466-0.17 0.521-0.419 0.063-0.288-0.119-0.572-0.407-0.635-0.183-0.041-0.368-0.075-0.555-0.105-0.291-0.048-0.564 0.152-0.61 0.443s0.151 0.564 0.443 0.61z"></path>
<path d="M27.407 4.661c-0.184-0.066-0.371-0.124-0.561-0.174-0.283-0.074-0.576 0.094-0.652 0.379-0.075 0.285 0.094 0.577 0.379 0.652 0.161 0.042 0.318 0.091 0.473 0.147 0.060 0.021 0.12 0.031 0.18 0.031 0.219 0 0.424-0.136 0.502-0.354 0.1-0.277-0.045-0.583-0.322-0.682z"></path>
<path d="M24.85 8.528c-0.294 0.015-0.521 0.265-0.506 0.559s0.245 0.518 0.559 0.506c0.164-0.008 0.333-0.003 0.495 0.013 0.019 0.002 0.037 0.003 0.056 0.003 0.27 0 0.501-0.204 0.53-0.478 0.030-0.293-0.183-0.555-0.476-0.586-0.216-0.022-0.439-0.029-0.657-0.017z"></path>
<path d="M31.073 3.549c0.105 0.115 0.25 0.174 0.394 0.174 0.129 0 0.257-0.046 0.359-0.139 0.218-0.198 0.233-0.536 0.035-0.754-0.064-0.070-0.129-0.139-0.195-0.206-0.207-0.211-0.544-0.213-0.754-0.007s-0.214 0.543-0.009 0.754c0.058 0.058 0.114 0.118 0.169 0.178z"></path>
<path d="M22.933 20.256h-6.4c-0.295 0-0.533 0.239-0.533 0.533s0.238 0.533 0.533 0.533h6.4c1.495 0 2.667-1.171 2.667-2.667v-1.067c0-0.294-0.238-0.533-0.533-0.533h-18.133c-0.295 0-0.533 0.239-0.533 0.533v1.067c0 1.495 1.171 2.667 2.667 2.667h4.8v2.667c0 0.294 0.238 0.533 0.533 0.533s0.533-0.239 0.533-0.533v-3.2c0-0.294-0.238-0.533-0.533-0.533h-5.333c-0.898 0-1.6-0.703-1.6-1.6v-0.533h17.067v0.533c-0 0.897-0.703 1.6-1.6 1.6z"></path>
<path d="M28.259 12.561c0.005 0.075 0.008 0.152 0.008 0.229 0 0.294 0.238 0.533 0.533 0.533s0.533-0.239 0.533-0.533c0-0.102-0.004-0.204-0.011-0.305-0.021-0.293-0.27-0.515-0.57-0.494-0.294 0.021-0.515 0.276-0.494 0.57z"></path>
<path d="M27.132 9.633c-0.195 0.221-0.173 0.558 0.047 0.753 0.124 0.109 0.239 0.228 0.344 0.354 0.106 0.127 0.258 0.192 0.411 0.192 0.12 0 0.241-0.041 0.341-0.123 0.226-0.189 0.257-0.525 0.068-0.751-0.139-0.167-0.294-0.326-0.459-0.471-0.22-0.194-0.557-0.174-0.753 0.047z"></path>
<path d="M16.533 12.226c0-0.294-0.238-0.533-0.533-0.533s-0.533 0.239-0.533 0.533v0.593c0 0.294 0.238 0.533 0.533 0.533s0.533-0.239 0.533-0.533v-0.593z"></path>
<path d="M16 14.656c-0.295 0-0.533 0.239-0.533 0.533v0.267c0 0.294 0.238 0.533 0.533 0.533s0.533-0.239 0.533-0.533v-0.267c0-0.294-0.238-0.533-0.533-0.533z"></path>
<path d="M18.133 15.456c0 0.294 0.238 0.533 0.533 0.533s0.533-0.239 0.533-0.533v-0.267c0-0.294-0.238-0.533-0.533-0.533s-0.533 0.239-0.533 0.533v0.267z"></path>
<path d="M16.533 9.59c0-0.084 0.001-0.167 0.004-0.251 0.006-0.228-0.133-0.423-0.332-0.505-0.020-0.009-0.043-0.009-0.065-0.015-0.040-0.011-0.078-0.027-0.121-0.028-0.005-0.001-0.010-0.001-0.016-0.001-0.001 0-0.002 0.001-0.003 0.001s-0.002-0.001-0.003-0.001c-0.006 0-0.011 0-0.016 0.001-0.043 0.001-0.082 0.017-0.121 0.028-0.021 0.006-0.045 0.006-0.065 0.015-0.199 0.082-0.339 0.277-0.332 0.505 0.003 0.084 0.004 0.167 0.004 0.251v0.267c0 0.294 0.238 0.533 0.533 0.533s0.533-0.239 0.533-0.533v-0.267z"></path>
<path d="M12.8 15.456c0 0.294 0.238 0.533 0.533 0.533s0.533-0.239 0.533-0.533v-0.267c0-0.294-0.238-0.533-0.533-0.533s-0.533 0.239-0.533 0.533v0.267z"></path>
<path d="M13.333 13.547c0.295 0 0.533-0.239 0.533-0.533v-0.542c0-0.294-0.238-0.533-0.533-0.533s-0.533 0.239-0.533 0.533v0.542c0 0.294 0.238 0.533 0.533 0.533z"></path>
<path d="M11.2 15.456v-0.267c0-0.294-0.238-0.533-0.533-0.533s-0.533 0.239-0.533 0.533v0.267c0 0.294 0.238 0.533 0.533 0.533s0.533-0.239 0.533-0.533z"></path>
<path d="M3.725 10.809c0.1 0.083 0.22 0.123 0.341 0.123 0.153 0 0.305-0.065 0.411-0.192 0.105-0.126 0.22-0.245 0.344-0.354 0.221-0.195 0.242-0.532 0.047-0.753s-0.531-0.243-0.753-0.048c-0.165 0.145-0.32 0.304-0.459 0.472-0.188 0.227-0.157 0.563 0.069 0.751z"></path>
<path d="M29.333 25.59h-11.2v-2.667c0-0.294-0.238-0.533-0.533-0.533s-0.533 0.239-0.533 0.533v3.2c0 0.294 0.238 0.533 0.533 0.533h11.2v2.667c0 0.882-0.718 1.6-1.6 1.6h-22.4c-0.882 0-1.6-0.718-1.6-1.6v-2.667h12.311c0.295 0 0.533-0.239 0.533-0.533s-0.238-0.533-0.533-0.533h-12.844c-0.295 0-0.533 0.239-0.533 0.533v3.2c0 1.47 1.196 2.667 2.667 2.667h22.4c1.47 0 2.667-1.196 2.667-2.667v-3.2c-0-0.294-0.238-0.533-0.533-0.533z"></path>
<path d="M12.8 28.256v1.067c0 0.294 0.238 0.533 0.533 0.533s0.533-0.239 0.533-0.533v-1.067c0-0.294-0.238-0.533-0.533-0.533s-0.533 0.239-0.533 0.533z"></path>
<path d="M0.557 10.39c-0.006-0.001-0.013-0.001-0.019-0.001-0.285 0-0.523 0.227-0.532 0.515-0.004 0.095-0.006 0.19-0.006 0.285 0 0.294 0.238 0.533 0.533 0.533s0.533-0.239 0.533-0.533c0-0.083 0.002-0.165 0.005-0.248 0.010-0.294-0.22-0.541-0.514-0.551z"></path>
<path d="M2.861 6.966c0.119-0.115 0.244-0.225 0.372-0.33 0.228-0.187 0.262-0.523 0.076-0.75s-0.522-0.263-0.75-0.076c-0.151 0.124-0.298 0.253-0.437 0.389-0.212 0.204-0.218 0.542-0.014 0.754 0.105 0.108 0.244 0.163 0.384 0.163 0.133-0 0.267-0.050 0.37-0.15z"></path>
<path d="M1.451 7.841c-0.263-0.131-0.585-0.026-0.716 0.238-0.087 0.174-0.169 0.353-0.241 0.534-0.109 0.274 0.024 0.584 0.297 0.693 0.065 0.026 0.132 0.038 0.198 0.038 0.212 0 0.412-0.127 0.495-0.335 0.061-0.154 0.13-0.305 0.204-0.453 0.132-0.263 0.026-0.583-0.237-0.716z"></path>
<path d="M2.412 2.225c0.090 0 0.182-0.023 0.266-0.071 0.145-0.083 0.291-0.162 0.441-0.235 0.264-0.13 0.373-0.45 0.243-0.714s-0.451-0.373-0.714-0.243c-0.171 0.084-0.338 0.173-0.502 0.267-0.255 0.147-0.343 0.473-0.196 0.729 0.099 0.171 0.278 0.267 0.462 0.267z"></path>
<path d="M7.467 28.256v1.067c0 0.294 0.238 0.533 0.533 0.533s0.533-0.239 0.533-0.533v-1.067c0-0.294-0.238-0.533-0.533-0.533s-0.533 0.239-0.533 0.533z"></path>
<path d="M31.208 9.307c0.273-0.109 0.406-0.419 0.297-0.693-0.073-0.182-0.154-0.361-0.241-0.534-0.132-0.263-0.452-0.369-0.716-0.238-0.263 0.132-0.37 0.452-0.237 0.716 0.074 0.148 0.142 0.299 0.204 0.453 0.083 0.209 0.284 0.335 0.495 0.335 0.067-0 0.133-0.012 0.198-0.038z"></path>
<path d="M31.994 10.904c-0.010-0.295-0.271-0.531-0.551-0.514-0.294 0.010-0.524 0.257-0.514 0.551 0.003 0.083 0.005 0.165 0.005 0.248 0 0.294 0.238 0.533 0.533 0.533s0.533-0.239 0.533-0.533c0-0.095-0.002-0.19-0.006-0.285z"></path>
<path d="M29.854 1.23c-0.164-0.094-0.331-0.183-0.502-0.267-0.262-0.129-0.584-0.021-0.714 0.243s-0.021 0.584 0.243 0.714c0.15 0.073 0.297 0.151 0.441 0.235 0.084 0.048 0.176 0.071 0.266 0.071 0.185 0 0.364-0.096 0.463-0.267 0.147-0.256 0.059-0.581-0.196-0.729z"></path>
<path d="M24.533 29.323v-1.067c0-0.294-0.238-0.533-0.533-0.533s-0.533 0.239-0.533 0.533v1.067c0 0.294 0.238 0.533 0.533 0.533s0.533-0.239 0.533-0.533z"></path>
<path d="M19.2 29.323v-1.067c0-0.294-0.238-0.533-0.533-0.533s-0.533 0.239-0.533 0.533v1.067c0 0.294 0.238 0.533 0.533 0.533s0.533-0.239 0.533-0.533z"></path>
<path d="M29.442 5.81c-0.229-0.187-0.565-0.152-0.75 0.076-0.187 0.228-0.153 0.564 0.075 0.75 0.129 0.105 0.253 0.214 0.372 0.33 0.103 0.1 0.237 0.15 0.37 0.15 0.14 0 0.279-0.054 0.384-0.163 0.204-0.212 0.198-0.55-0.014-0.754-0.14-0.135-0.286-0.265-0.437-0.389z"></path>
<path d="M3.248 11.991c-0.305-0.020-0.549 0.201-0.57 0.494-0.007 0.101-0.011 0.202-0.011 0.305 0 0.294 0.238 0.533 0.533 0.533s0.533-0.239 0.533-0.533c0-0.077 0.003-0.154 0.008-0.229 0.021-0.294-0.2-0.549-0.494-0.57z"></path>
<path d="M10.565 11.778c-0.291 0.038-0.497 0.306-0.459 0.598 0.018 0.135 0.027 0.273 0.027 0.413v0.092c0 0.295 0.238 0.533 0.533 0.533s0.533-0.238 0.533-0.533v-0.092c0-0.186-0.012-0.372-0.036-0.553-0.039-0.292-0.301-0.498-0.599-0.459z"></path>
<path d="M9.963 1.61c0.157 0.059 0.311 0.124 0.464 0.192 0.071 0.032 0.145 0.047 0.218 0.047 0.204 0 0.398-0.117 0.487-0.315 0.121-0.269 0.001-0.585-0.268-0.705-0.171-0.077-0.346-0.149-0.522-0.217-0.274-0.102-0.583 0.034-0.687 0.31s0.034 0.583 0.309 0.688z"></path>
<path d="M9.756 6.045c0.145 0.080 0.286 0.166 0.423 0.257 0.091 0.061 0.194 0.090 0.296 0.090 0.172 0 0.341-0.083 0.444-0.236 0.164-0.245 0.098-0.576-0.147-0.74-0.162-0.108-0.33-0.21-0.501-0.305-0.259-0.141-0.582-0.049-0.725 0.21s-0.047 0.582 0.21 0.724z"></path>
<path d="M0.533 3.723c0.145 0 0.289-0.059 0.394-0.174 0.055-0.060 0.111-0.12 0.169-0.178 0.205-0.211 0.202-0.548-0.009-0.754-0.21-0.206-0.547-0.202-0.754 0.007-0.066 0.067-0.131 0.136-0.195 0.206-0.198 0.218-0.183 0.555 0.035 0.754 0.102 0.093 0.231 0.139 0.36 0.139z"></path>
<path d="M8.917 10.278c0.13 0.103 0.252 0.217 0.363 0.336 0.106 0.114 0.248 0.171 0.391 0.171 0.13 0 0.26-0.047 0.363-0.142 0.216-0.2 0.228-0.538 0.028-0.754-0.148-0.159-0.31-0.309-0.482-0.446-0.232-0.183-0.567-0.145-0.749 0.086-0.183 0.23-0.145 0.566 0.086 0.749z"></path>
<path d="M11.901 8.067c0.101 0.161 0.275 0.249 0.452 0.249 0.098 0 0.195-0.027 0.284-0.082 0.249-0.157 0.324-0.487 0.167-0.736-0.105-0.165-0.216-0.326-0.332-0.482-0.178-0.234-0.511-0.283-0.747-0.105s-0.282 0.512-0.105 0.747c0.1 0.132 0.194 0.268 0.282 0.409z"></path>
<path d="M12.148 2.834c0.132 0.102 0.262 0.209 0.388 0.318 0.101 0.088 0.226 0.131 0.35 0.131 0.149 0 0.297-0.062 0.402-0.183 0.194-0.222 0.17-0.559-0.052-0.753-0.142-0.124-0.288-0.244-0.438-0.359-0.233-0.18-0.567-0.136-0.748 0.098-0.179 0.234-0.136 0.568 0.098 0.748z"></path>
<path d="M4.897 1.274c0.038 0 0.076-0.004 0.114-0.012 0.164-0.036 0.329-0.067 0.495-0.094 0.291-0.046 0.489-0.319 0.443-0.61s-0.318-0.491-0.61-0.443c-0.187 0.030-0.372 0.065-0.555 0.105-0.288 0.063-0.47 0.347-0.407 0.635 0.055 0.249 0.275 0.419 0.521 0.419z"></path>
<path d="M7.517 1.076c0.169 0.012 0.335 0.028 0.5 0.049 0.022 0.003 0.045 0.004 0.067 0.004 0.265 0 0.495-0.197 0.528-0.467 0.037-0.292-0.17-0.559-0.462-0.596-0.186-0.023-0.373-0.042-0.563-0.054-0.287-0.021-0.549 0.203-0.568 0.497s0.203 0.548 0.497 0.567z"></path>
<path d="M13.058 9.256c-0.287 0.065-0.468 0.35-0.403 0.638 0.037 0.16 0.066 0.322 0.088 0.486 0.037 0.268 0.266 0.462 0.529 0.462 0.024 0 0.048-0.002 0.072-0.005 0.292-0.039 0.497-0.308 0.457-0.6-0.027-0.195-0.062-0.388-0.105-0.579-0.065-0.287-0.352-0.467-0.638-0.402z"></path>
<path d="M4.773 5.697c0.060 0 0.121-0.010 0.18-0.031 0.155-0.056 0.313-0.105 0.473-0.147 0.285-0.076 0.454-0.367 0.379-0.652s-0.368-0.453-0.652-0.379c-0.189 0.050-0.377 0.109-0.561 0.174-0.277 0.099-0.421 0.405-0.322 0.682 0.078 0.218 0.283 0.354 0.502 0.354z"></path>
<path d="M7.397 5.341c0.166 0.013 0.33 0.033 0.492 0.059 0.029 0.005 0.058 0.007 0.087 0.007 0.257 0 0.483-0.185 0.525-0.446 0.048-0.291-0.149-0.565-0.439-0.613-0.191-0.031-0.386-0.055-0.583-0.070-0.29-0.026-0.55 0.196-0.573 0.49s0.197 0.55 0.491 0.573z"></path>
<path d="M6.547 9.609c0.018 0 0.037-0.001 0.055-0.003 0.162-0.017 0.331-0.021 0.495-0.013 0.307 0.014 0.545-0.212 0.559-0.506s-0.212-0.544-0.506-0.559c-0.218-0.012-0.442-0.005-0.657 0.017-0.293 0.030-0.506 0.292-0.476 0.586 0.029 0.274 0.26 0.478 0.53 0.478z"></path>
</symbol>
<symbol id="icon-Group" viewBox="0 0 58 32">
<path d="M55.789 28.9c-0.068-0.146-0.131-0.268-0.19-0.365-0.973-1.752-2.833-3.904-5.578-6.454l-0.058-0.058-0.029-0.029-0.029-0.029h-0.029c-1.246-1.188-2.035-1.986-2.365-2.395-0.604-0.779-0.74-1.567-0.41-2.366 0.233-0.603 1.11-1.878 2.628-3.825 0.798-1.032 1.431-1.859 1.898-2.482 3.368-4.478 4.828-7.339 4.38-8.585l-0.174-0.291c-0.117-0.175-0.419-0.336-0.905-0.482s-1.11-0.17-1.869-0.073l-8.41 0.058c-0.136-0.048-0.331-0.044-0.584 0.015s-0.38 0.088-0.38 0.088l-0.146 0.073-0.116 0.088c-0.097 0.058-0.204 0.16-0.321 0.306s-0.213 0.316-0.291 0.511c-0.916 2.356-1.957 4.546-3.125 6.57-0.72 1.207-1.382 2.253-1.986 3.139s-1.109 1.538-1.518 1.956c-0.409 0.419-0.778 0.754-1.11 1.007s-0.584 0.361-0.759 0.321c-0.176-0.039-0.341-0.078-0.497-0.117-0.272-0.175-0.491-0.414-0.657-0.715s-0.278-0.681-0.336-1.139c-0.058-0.458-0.092-0.852-0.102-1.183s-0.005-0.798 0.015-1.402c0.020-0.604 0.029-1.012 0.029-1.226 0-0.74 0.015-1.543 0.043-2.409s0.053-1.553 0.073-2.058c0.020-0.506 0.029-1.042 0.029-1.606s-0.034-1.007-0.102-1.329c-0.067-0.321-0.17-0.632-0.306-0.935s-0.336-0.535-0.599-0.701c-0.263-0.165-0.589-0.297-0.978-0.394-1.032-0.234-2.346-0.36-3.943-0.379-3.621-0.039-5.947 0.195-6.979 0.701-0.409 0.214-0.779 0.506-1.11 0.876-0.351 0.428-0.399 0.662-0.146 0.701 1.168 0.175 1.995 0.594 2.482 1.256l0.176 0.351c0.136 0.253 0.273 0.701 0.409 1.343s0.224 1.353 0.263 2.131c0.097 1.421 0.097 2.638 0 3.65s-0.19 1.801-0.277 2.365-0.219 1.022-0.394 1.372c-0.176 0.35-0.292 0.565-0.351 0.642s-0.107 0.127-0.146 0.146c-0.253 0.097-0.516 0.146-0.788 0.146s-0.604-0.136-0.993-0.409c-0.389-0.273-0.793-0.647-1.212-1.124s-0.891-1.144-1.417-2c-0.525-0.857-1.071-1.869-1.635-3.037l-0.467-0.847c-0.292-0.545-0.691-1.338-1.197-2.38s-0.954-2.049-1.343-3.023c-0.156-0.409-0.389-0.72-0.701-0.934l-0.146-0.088c-0.097-0.078-0.253-0.16-0.467-0.248s-0.438-0.151-0.672-0.19l-8.001 0.058c-0.818 0-1.372 0.185-1.665 0.555l-0.117 0.175c-0.058 0.097-0.088 0.253-0.088 0.467s0.058 0.477 0.175 0.788c1.168 2.745 2.438 5.393 3.811 7.943s2.565 4.605 3.577 6.161c1.012 1.558 2.044 3.028 3.095 4.41s1.747 2.268 2.088 2.657c0.341 0.39 0.609 0.681 0.803 0.876l0.73 0.701c0.467 0.467 1.153 1.027 2.059 1.679s1.908 1.295 3.008 1.928c1.1 0.632 2.38 1.148 3.84 1.547s2.881 0.56 4.264 0.482h3.358c0.681-0.059 1.197-0.273 1.548-0.643l0.116-0.146c0.078-0.116 0.151-0.297 0.219-0.54 0.068-0.243 0.102-0.511 0.102-0.803-0.020-0.837 0.044-1.591 0.189-2.263s0.311-1.177 0.497-1.518c0.185-0.341 0.395-0.628 0.628-0.861s0.4-0.375 0.497-0.424c0.097-0.049 0.174-0.082 0.233-0.102 0.467-0.156 1.017-0.005 1.65 0.453s1.226 1.022 1.782 1.694c0.555 0.672 1.222 1.426 2 2.263s1.46 1.46 2.044 1.869l0.584 0.35c0.39 0.234 0.896 0.448 1.519 0.643 0.622 0.195 1.167 0.243 1.635 0.146l7.475-0.117c0.739 0 1.315-0.122 1.723-0.365s0.652-0.511 0.73-0.803c0.078-0.292 0.082-0.623 0.015-0.993-0.069-0.369-0.137-0.628-0.205-0.774z"></path>
</symbol>
<symbol id="icon-HouseVOP" viewBox="0 0 162 32">
<path d="M0.5 30.769v-30.288h3.764v13.197h3.894v3.678h-3.894v13.413h-3.764zM10.322 17.356v-3.678h3.851v-13.197h3.808v30.288h-3.808v-13.413h-3.851zM21.356 24.365v-10.688c0-1.356 0.606-2.683 1.817-3.981 1.5-1.558 3.375-2.337 5.625-2.337v3.505c-1.702 0-2.885 0.707-3.548 2.12-0.202 0.433-0.303 0.865-0.303 1.298v9.519c0 1.067 0.49 1.976 1.471 2.726 0.692 0.519 1.486 0.779 2.38 0.779v3.505c-2.74 0-4.861-1.111-6.36-3.332-0.721-1.096-1.082-2.135-1.082-3.115zM30.659 30.813v-3.505c1.529 0 2.625-0.692 3.288-2.077 0.231-0.462 0.346-0.909 0.346-1.341v-9.606c0-1.183-0.505-2.12-1.514-2.813-0.635-0.404-1.356-0.606-2.163-0.606v-3.505c2.654 0 4.702 1.082 6.144 3.245 0.721 1.067 1.082 2.091 1.082 3.072v10.688c0 1.413-0.606 2.784-1.817 4.111-1.413 1.529-3.202 2.308-5.365 2.337zM41.13 24.538v-17.135h3.678v16.702c0 1.039 0.519 1.904 1.558 2.596 0.692 0.433 1.457 0.649 2.293 0.649v3.635c-2.769 0-4.904-1.082-6.404-3.245-0.75-1.096-1.125-2.164-1.125-3.202zM50.562 30.986v-3.635c1.558 0 2.697-0.62 3.418-1.861 0.26-0.462 0.389-0.923 0.389-1.385v-16.702h3.678v17.135c0 1.356-0.62 2.697-1.861 4.024-1.5 1.587-3.375 2.394-5.625 2.423zM60.558 24.625l3.418-0.649c0 1.298 0.678 2.322 2.034 3.072 0.663 0.317 1.298 0.49 1.904 0.519v3.418c-2.798 0-4.889-1.010-6.274-3.029-0.721-1.067-1.082-2.178-1.082-3.332zM60.774 13.981c0-2.625 1.197-4.572 3.591-5.841 1.154-0.606 2.308-0.909 3.462-0.909v3.375c-1.327 0-2.351 0.548-3.072 1.644-0.375 0.548-0.563 1.125-0.563 1.731 0 0.923 0.721 1.673 2.164 2.25 1.096 0.462 3.216 1.067 6.361 1.817 1.962 0.404 3.361 1.37 4.197 2.899 0.433 0.808 0.649 1.716 0.649 2.726 0 2.769-1.111 4.817-3.332 6.144-1.298 0.779-2.784 1.168-4.457 1.168v-3.418c1.327 0 2.438-0.462 3.332-1.385 0.635-0.663 0.952-1.442 0.952-2.337 0-1.154-1.139-2.077-3.418-2.769-0.577-0.173-1.5-0.418-2.769-0.736-1.356-0.317-2.337-0.577-2.942-0.779-2.192-0.865-3.519-2.178-3.981-3.937-0.115-0.519-0.173-1.067-0.173-1.644zM69.731 10.649v-3.418c2.481 0 4.486 0.923 6.015 2.769 0.952 1.183 1.428 2.423 1.428 3.721l-3.418 0.563c0-1.587-0.865-2.697-2.596-3.332-0.519-0.202-0.995-0.303-1.428-0.303zM80.115 24.365v-10.731c0.029-1.327 0.663-2.639 1.904-3.937 1.5-1.529 3.317-2.308 5.452-2.337v3.418c-1.385 0-2.466 0.606-3.245 1.817-0.317 0.519-0.476 0.995-0.476 1.428v2.942h9.692v-2.942c0-1.298-0.663-2.25-1.99-2.856-0.606-0.288-1.226-0.433-1.861-0.433v-3.375c1.99 0 3.764 0.707 5.322 2.12 1.298 1.24 1.961 2.611 1.99 4.111v6.88h-13.154v3.894c0 0.808 0.462 1.558 1.385 2.25 0.75 0.519 1.543 0.779 2.38 0.779v3.375c-2.625 0-4.688-1.067-6.188-3.202-0.808-1.125-1.211-2.192-1.211-3.202zM89.591 30.769v-3.418c1.731 0 3.029-0.75 3.894-2.25 0.173-0.317 0.303-0.62 0.389-0.909l3.072 1.125c-0.519 1.99-1.702 3.49-3.548 4.5-1.183 0.635-2.452 0.952-3.808 0.952zM99.067 0.481h3.808l7.702 26.308-1.385 3.981h-1.341l-8.784-30.288zM109.625 16.534l5.365-16.053h3.808c-0.26 0.837-1.341 4.183-3.245 10.038-2.221 6.808-3.49 10.716-3.808 11.726h-0.433l-1.688-5.712zM120.875 22.332v-14.236c0-1.529 0.649-3.087 1.947-4.673 1.73-2.077 3.922-3.13 6.577-3.159v3.764c-1.76 0-3.13 0.894-4.111 2.683-0.404 0.779-0.606 1.471-0.606 2.077v13.543c0 1.817 0.894 3.231 2.682 4.24 0.751 0.433 1.414 0.649 1.991 0.649v3.764c-1.644 0-3.289-0.591-4.933-1.774-2.337-1.731-3.519-4.024-3.548-6.88zM131.735 30.986v-3.764c1.009 0 2.034-0.447 3.072-1.341 1.097-0.981 1.659-2.163 1.687-3.548v-13.543c0-1.125-0.462-2.207-1.385-3.245-0.951-0.981-2.076-1.486-3.375-1.514v-3.764c2.913 0 5.25 1.255 7.009 3.764 1.010 1.442 1.515 2.798 1.515 4.067v14.236c0 3.202-1.428 5.654-4.284 7.356-1.499 0.865-2.913 1.298-4.24 1.298zM143.765 30.769h3.764v-30.288h-3.764v30.288zM149.692 17.226h4.673c3.778-0.029 6.144-1.471 7.097-4.327 0.374-1.154 0.562-2.524 0.562-4.111 0-5.279-2.38-8.048-7.14-8.308-0.174 0-0.347 0-0.519 0h-4.673v3.635h4.068c2.913 0.058 4.384 1.615 4.414 4.673-0.058 3.144-1.515 4.731-4.37 4.76h-4.111v3.678z"></path>
</symbol>
<symbol id="icon-instagram" viewBox="0 0 32 32">
<path d="M22 0h-12c-5.522 0-10 4.478-10 10v12c0 5.522 4.478 10 10 10h12c5.522 0 10-4.478 10-10v-12c0-5.522-4.478-10-10-10zM29 22c0 3.86-3.14 7-7 7h-12c-3.86 0-7-3.14-7-7v-12c0-3.86 3.14-7 7-7h12c3.86 0 7 3.14 7 7v12z"></path>
<path d="M16 8c-4.418 0-8 3.582-8 8s3.582 8 8 8c4.418 0 8-3.582 8-8s-3.582-8-8-8zM16 21c-2.756 0-5-2.244-5-5 0-2.758 2.244-5 5-5s5 2.242 5 5c0 2.756-2.244 5-5 5z"></path>
<path d="M24.6 8.466c0.589 0 1.066-0.477 1.066-1.066s-0.477-1.066-1.066-1.066c-0.589 0-1.066 0.477-1.066 1.066s0.477 1.066 1.066 1.066z"></path>
</symbol>
<symbol id="icon-mouse" viewBox="0 0 32 32">
<path d="M15.975 0c-5.19 0-9.413 4.222-9.413 9.413v13.175c0 5.19 4.222 9.413 9.413 9.413s9.413-4.222 9.413-9.413v-13.175c0-5.19-4.222-9.413-9.413-9.413zM23.468 22.587c0 4.131-3.361 7.493-7.493 7.493s-7.493-3.361-7.493-7.493v-13.175c0-4.131 3.361-7.493 7.493-7.493s7.493 3.361 7.493 7.493v13.175z"></path>
<path d="M15.975 6.366c-0.53 0-0.96 0.43-0.96 0.96v4.418c0 0.53 0.43 0.96 0.96 0.96s0.96-0.43 0.96-0.96v-4.418c0-0.53-0.43-0.96-0.96-0.96z"></path>
</symbol>
<symbol id="icon-play-button" viewBox="0 0 32 32">
<path d="M16 0c-8.836 0-16 7.163-16 16s7.164 16 16 16c8.836 0 16-7.163 16-16s-7.164-16-16-16zM21.53 16.848l-8 5c-0.162 0.101-0.346 0.152-0.53 0.152-0.167 0-0.334-0.041-0.485-0.125-0.318-0.176-0.515-0.511-0.515-0.875v-10c0-0.364 0.197-0.698 0.515-0.874 0.318-0.177 0.707-0.166 1.015 0.026l8 5c0.292 0.183 0.47 0.503 0.47 0.848s-0.178 0.665-0.47 0.848z"></path>
</symbol>
<symbol id="icon-Vector" viewBox="0 0 46 32">
<path d="M35.83 0h-26.438c-5.187 0-9.392 4.205-9.392 9.392v13.216c0 5.187 4.205 9.392 9.392 9.392h26.438c5.187 0 9.392-4.205 9.392-9.392v-13.216c0-5.187-4.205-9.392-9.392-9.392zM29.478 16.643l-12.366 5.898c-0.329 0.157-0.71-0.083-0.71-0.448v-12.164c0-0.37 0.391-0.61 0.721-0.443l12.366 6.266c0.368 0.186 0.361 0.714-0.011 0.891z"></path>
</symbol>
</defs>
</svg>
